HIERARCHY
ROOT Hips
{
	OFFSET 0.000000 100.481300 0.000000
	CHANNELS 6 Xposition Yposition Zposition Xrotation Yrotation Zrotation 
	JOINT Spine
	{
		OFFSET -0.279200 12.230698 -2.892100
		CHANNELS 3 Xrotation Yrotation Zrotation
		JOINT Spine1
		{
			OFFSET -0.232667 10.192268 -1.242267
			CHANNELS 3 Xrotation Yrotation Zrotation
			JOINT Spine1_split
			{
				OFFSET -0.232667 10.192268 -1.242267
				CHANNELS 3 Xrotation Yrotation Zrotation
				JOINT Spine2
				{
					OFFSET -0.232667 10.192268 -1.242267
					CHANNELS 3 Xrotation Yrotation Zrotation
					JOINT Neck
					{
						OFFSET -0.418800 17.814194 8.416900
						CHANNELS 3 Xrotation Yrotation Zrotation
						JOINT Head
						{
							OFFSET 0.000000 7.031097 3.806800
							CHANNELS 3 Xrotation Yrotation Zrotation
							JOINT HeadTop_End
							{
								OFFSET 0.000000 24.646606 12.978600
								CHANNELS 3 Xrotation Yrotation Zrotation
								End Site
								{
									OFFSET 0.000000 0.000000 0.000000
								}
							}
						}
					}
					JOINT LeftShoulder
					{
						OFFSET 8.476499 7.247704 -3.868750
						CHANNELS 3 Xrotation Yrotation Zrotation
						JOINT LeftShoulder_split
						{
							OFFSET 8.476499 7.247704 -3.868750
							CHANNELS 3 Xrotation Yrotation Zrotation
							JOINT LeftArm
							{
								OFFSET 9.308998 -2.777710 0.208600
								CHANNELS 3 Xrotation Yrotation Zrotation
								JOINT LeftForeArm
								{
									OFFSET 29.972298 0.000000 0.000000
									CHANNELS 3 Xrotation Yrotation Zrotation
									JOINT LeftHand
									{
										OFFSET 26.026505 0.000000 0.000000
										CHANNELS 3 Xrotation Yrotation Zrotation
										JOINT LeftHandThumb1
										{
											OFFSET 12.240501 -7.147949 9.207150
											CHANNELS 3 Xrotation Yrotation Zrotation
											JOINT LeftHandThumb2
											{
												OFFSET 4.138618 -2.389435 2.389433
												CHANNELS 3 Xrotation Yrotation Zrotation
												JOINT LeftHandThumb3
												{
													OFFSET 2.726913 -1.574387 1.574386
													CHANNELS 3 Xrotation Yrotation Zrotation
													JOINT LeftHandThumb4
													{
														OFFSET 3.941010 -2.275345 2.275342
														CHANNELS 3 Xrotation Yrotation Zrotation
														End Site
														{
															OFFSET 0.000000 0.000000 0.000000
														}
													}
												}
											}
										}
										JOINT LeftHandIndex1
										{
											OFFSET 24.424698 -1.985611 5.953459
											CHANNELS 3 Xrotation Yrotation Zrotation
											JOINT LeftHandIndex2
											{
												OFFSET 6.426697 0.000000 0.000000
												CHANNELS 3 Xrotation Yrotation Zrotation
												JOINT LeftHandIndex3
												{
													OFFSET 5.337898 0.000000 0.000000
													CHANNELS 3 Xrotation Yrotation Zrotation
													JOINT LeftHandIndex4
													{
														OFFSET 4.409401 0.000000 0.000000
														CHANNELS 3 Xrotation Yrotation Zrotation
														End Site
														{
															OFFSET 0.000000 0.000000 0.000000
														}
													}
												}
											}
										}
										JOINT LeftHandMiddle1
										{
											OFFSET 23.810104 0.000000 0.000000
											CHANNELS 3 Xrotation Yrotation Zrotation
											JOINT LeftHandMiddle2
											{
												OFFSET 7.176498 0.000000 0.000000
												CHANNELS 3 Xrotation Yrotation Zrotation
												JOINT LeftHandMiddle3
												{
													OFFSET 6.774902 0.000000 0.000000
													CHANNELS 3 Xrotation Yrotation Zrotation
													JOINT LeftHandMiddle4
													{
														OFFSET 5.403328 0.000000 0.000000
														CHANNELS 3 Xrotation Yrotation Zrotation
														End Site
														{
															OFFSET 0.000000 0.000000 0.000000
														}
													}
												}
											}
										}
										JOINT LeftHandRing1
										{
											OFFSET 22.908401 -0.839279 -6.020567
											CHANNELS 3 Xrotation Yrotation Zrotation
											JOINT LeftHandRing2
											{
												OFFSET 6.337502 0.000000 0.000000
												CHANNELS 3 Xrotation Yrotation Zrotation
												JOINT LeftHandRing3
												{
													OFFSET 5.779297 0.000000 0.000000
													CHANNELS 3 Xrotation Yrotation Zrotation
													JOINT LeftHandRing4
													{
														OFFSET 4.965698 0.000000 0.000000
														CHANNELS 3 Xrotation Yrotation Zrotation
														End Site
														{
															OFFSET 0.000000 0.000000 0.000000
														}
													}
												}
											}
										}
										JOINT LeftHandPinky1
										{
											OFFSET 20.037003 -1.530319 -10.950146
											CHANNELS 3 Xrotation Yrotation Zrotation
											JOINT LeftHandPinky2
											{
												OFFSET 5.254700 0.000000 0.000000
												CHANNELS 3 Xrotation Yrotation Zrotation
												JOINT LeftHandPinky3
												{
													OFFSET 4.810204 0.000000 0.000000
													CHANNELS 3 Xrotation Yrotation Zrotation
													JOINT LeftHandPinky4
													{
														OFFSET 3.647202 0.000000 0.000000
														CHANNELS 3 Xrotation Yrotation Zrotation
														End Site
														{
															OFFSET 0.000000 0.000000 0.000000
														}
													}
												}
											}
										}
									}
								}
							}
						}
					}
					JOINT RightShoulder
					{
						OFFSET -7.570500 7.247704 -3.868750
						CHANNELS 3 Xrotation Yrotation Zrotation
						JOINT RightShoulder_split
						{
							OFFSET -7.570500 7.247704 -3.868750
							CHANNELS 3 Xrotation Yrotation Zrotation
							JOINT RightArm
							{
								OFFSET -9.308998 -2.777710 0.208500
								CHANNELS 3 Xrotation Yrotation Zrotation
								JOINT RightForeArm
								{
									OFFSET -29.972300 0.000000 0.000000
									CHANNELS 3 Xrotation Yrotation Zrotation
									JOINT RightHand
									{
										OFFSET -26.026505 0.000000 0.000000
										CHANNELS 3 Xrotation Yrotation Zrotation
										JOINT RightHandThumb1
										{
											OFFSET -12.240601 -7.148026 9.207092
											CHANNELS 3 Xrotation Yrotation Zrotation
											JOINT RightHandThumb2
											{
												OFFSET -4.138618 -2.389435 2.389433
												CHANNELS 3 Xrotation Yrotation Zrotation
												JOINT RightHandThumb3
												{
													OFFSET -2.726974 -1.574417 1.574421
													CHANNELS 3 Xrotation Yrotation Zrotation
													JOINT RightHandThumb4
													{
														OFFSET -3.941010 -2.275345 2.275343
														CHANNELS 3 Xrotation Yrotation Zrotation
														End Site
														{
															OFFSET 0.000000 0.000000 0.000000
														}
													}
												}
											}
										}
										JOINT RightHandIndex1
										{
											OFFSET -24.424698 -1.985657 5.953444
											CHANNELS 3 Xrotation Yrotation Zrotation
											JOINT RightHandIndex2
											{
												OFFSET -6.426697 0.000000 0.000000
												CHANNELS 3 Xrotation Yrotation Zrotation
												JOINT RightHandIndex3
												{
													OFFSET -5.337898 0.000000 0.000000
													CHANNELS 3 Xrotation Yrotation Zrotation
													JOINT RightHandIndex4
													{
														OFFSET -4.409401 0.000000 0.000000
														CHANNELS 3 Xrotation Yrotation Zrotation
														End Site
														{
															OFFSET 0.000000 0.000000 0.000000
														}
													}
												}
											}
										}
										JOINT RightHandMiddle1
										{
											OFFSET -23.810097 0.000000 0.000000
											CHANNELS 3 Xrotation Yrotation Zrotation
											JOINT RightHandMiddle2
											{
												OFFSET -7.176498 0.000000 0.000000
												CHANNELS 3 Xrotation Yrotation Zrotation
												JOINT RightHandMiddle3
												{
													OFFSET -6.774902 0.000000 0.000000
													CHANNELS 3 Xrotation Yrotation Zrotation
													JOINT RightHandMiddle4
													{
														OFFSET -5.403328 0.000000 0.000000
														CHANNELS 3 Xrotation Yrotation Zrotation
														End Site
														{
															OFFSET 0.000000 0.000000 0.000000
														}
													}
												}
											}
										}
										JOINT RightHandRing1
										{
											OFFSET -22.908302 -0.839325 -6.020576
											CHANNELS 3 Xrotation Yrotation Zrotation
											JOINT RightHandRing2
											{
												OFFSET -6.337502 0.000000 0.000000
												CHANNELS 3 Xrotation Yrotation Zrotation
												JOINT RightHandRing3
												{
													OFFSET -5.779297 0.000000 0.000000
													CHANNELS 3 Xrotation Yrotation Zrotation
													JOINT RightHandRing4
													{
														OFFSET -4.965698 0.000000 0.000000
														CHANNELS 3 Xrotation Yrotation Zrotation
														End Site
														{
															OFFSET 0.000000 0.000000 0.000000
														}
													}
												}
											}
										}
										JOINT RightHandPinky1
										{
											OFFSET -20.037003 -1.530334 -10.950259
											CHANNELS 3 Xrotation Yrotation Zrotation
											JOINT RightHandPinky2
											{
												OFFSET -5.254700 0.000000 0.000000
												CHANNELS 3 Xrotation Yrotation Zrotation
												JOINT RightHandPinky3
												{
													OFFSET -4.810204 0.000000 0.000000
													CHANNELS 3 Xrotation Yrotation Zrotation
													JOINT RightHandPinky4
													{
														OFFSET -3.647202 0.000000 0.000000
														CHANNELS 3 Xrotation Yrotation Zrotation
														End Site
														{
															OFFSET 0.000000 0.000000 0.000000
														}
													}
												}
											}
										}
									}
								}
							}
						}
					}
				}
			}
		}
	}
	JOINT LeftUpLeg
	{
		OFFSET 15.427100 -6.655098 0.678600
		CHANNELS 3 Xrotation Yrotation Zrotation
		JOINT LeftLeg
		{
			OFFSET 4.081073 -39.591068 13.024000
			CHANNELS 3 Xrotation Yrotation Zrotation
			JOINT LeftFoot
			{
				OFFSET -4.081074 -37.707932 -15.979700
				CHANNELS 3 Xrotation Yrotation Zrotation
				JOINT LeftToeBase
				{
					OFFSET 5.346399 -15.068900 20.645000
					CHANNELS 3 Xrotation Yrotation Zrotation
					JOINT LeftToe_End
					{
						OFFSET 2.754700 0.931300 11.300900
						CHANNELS 3 Xrotation Yrotation Zrotation
						End Site
						{
							OFFSET 0.000000 0.000000 0.000000
						}
					}
				}
			}
		}
	}
	JOINT RightUpLeg
	{
		OFFSET -15.569500 -6.655098 0.678600
		CHANNELS 3 Xrotation Yrotation Zrotation
		JOINT RightLeg
		{
			OFFSET -4.081825 -39.591045 13.023800
			CHANNELS 3 Xrotation Yrotation Zrotation
			JOINT RightFoot
			{
				OFFSET 4.081824 -37.707954 -15.979600
				CHANNELS 3 Xrotation Yrotation Zrotation
				JOINT RightToeBase
				{
					OFFSET -5.346400 -15.068900 20.645000
					CHANNELS 3 Xrotation Yrotation Zrotation
					JOINT RightToe_End
					{
						OFFSET -2.754700 0.931300 11.300900
						CHANNELS 3 Xrotation Yrotation Zrotation
						End Site
						{
							OFFSET 0.000000 0.000000 0.000000
						}
					}
				}
			}
		}
	}
}
MOTION
Frames: 4
Frame Time: 0.016667
9.781322 92.874359 14.147466 -1.291762 6.185028 -4.372799 9.968263 -1.749332 1.839308 1.871314 -1.420407 1.481033 0.000000 0.000000 0.000000 -3.085456 -1.618650 0.047467 -2.263182 -2.413852 6.433473 -4.853451 1.032563 -5.132383 -0.000000 -0.000000 0.000000 1.744052 -3.421884 -0.743977 0.000000 0.000000 0.000000 -7.039692 -12.744832 -76.199974 9.887305 -11.719673 -4.534094 1.706385 -0.532265 7.848856 -4.356441 11.023679 11.798652 5.431343 10.003925 0.349298 2.355748 8.701266 3.488046 -0.000002 -0.000001 0.000002 2.289872 -1.111374 -15.774153 -0.017005 0.156527 -19.489089 0.028094 0.100557 -17.333782 0.000002 -0.000001 -0.000002 -0.324414 0.423825 -19.903224 0.047033 0.327318 -24.651833 0.030634 0.022120 -16.327475 0.000002 -0.000001 -0.000002 -1.103103 2.349905 -19.788682 -0.026219 0.169242 -29.078287 0.072874 0.343772 -19.212887 -0.000000 -0.000000 0.000000 -3.158370 2.690841 -30.313394 0.023811 0.128494 -31.162735 0.016071 0.068051 -20.716165 0.000001 0.000001 0.000002 2.245580 4.208256 6.197044 0.000000 0.000000 0.000000 0.519972 4.376569 72.028812 11.172624 15.288354 2.172158 -7.832648 -0.659878 -5.101829 -0.466438 -9.625978 -6.004445 7.286172 -11.588855 1.091598 1.069329 -8.364376 -4.888920 0.000000 -0.000001 0.000004 2.690310 -4.660468 9.914387 -0.045367 -0.188960 19.171745 -0.054449 -0.137530 15.239832 0.000000 -0.000001 -0.000004 -1.689184 -5.560297 14.804553 0.093470 -0.624787 27.014822 -0.054124 -0.066172 12.554027 -0.000000 -0.000000 0.000005 -4.593414 -8.836037 12.400034 -0.024343 -0.323706 32.805877 0.109079 -0.661932 16.280622 0.000001 -0.000001 0.000000 -6.446326 -8.951899 24.517930 0.067058 -0.215935 34.229083 -0.039960 -0.085664 15.915104 -0.000000 -0.000000 0.000000 3.916405 11.271930 7.750760 19.028606 -8.095223 -0.837949 -22.784833 2.290110 0.066381 0.000051 0.013871 -0.000000 0.000000 0.000000 0.000000 -31.212855 -6.597441 -3.162787 29.762611 -0.111643 1.275410 1.335756 0.937356 7.250657 2.226801 -0.483390 -0.382523 0.000000 0.000000 -0.000000 
9.848127 93.113297 15.041008 -1.162202 6.275896 -4.696287 10.162521 -1.789583 1.915341 1.658268 -1.547289 1.654123 0.000000 0.000000 0.000000 -3.099213 -1.728067 0.284328 -2.452574 -2.344111 6.184122 -4.954938 1.081390 -5.347817 0.000000 0.000000 0.000000 1.747732 -3.049442 -1.011632 0.000000 0.000000 0.000000 -6.924677 -13.420952 -75.877842 9.745415 -12.188610 -4.775191 2.092403 -0.946459 8.152636 -4.383276 11.106651 11.775336 5.357296 9.945683 0.408949 2.400804 8.693759 3.424686 0.000000 -0.000000 -0.000000 2.245797 -1.355900 -16.178044 -0.017982 0.152853 -19.607404 0.027508 0.097603 -17.537563 -0.000001 0.000002 -0.000002 -0.299591 0.156411 -20.277025 0.045373 0.314825 -24.655747 0.030731 0.021992 -16.638677 0.000001 -0.000004 -0.000002 -1.047556 1.972710 -20.300101 -0.026420 0.162932 -29.051011 0.072287 0.330188 -19.513465 0.000004 0.000004 0.000001 -3.136084 2.284602 -30.597984 0.022760 0.123699 -31.167260 0.015593 0.065774 -21.044793 -0.000000 0.000000 0.000000 2.286457 4.046476 5.957243 0.000000 0.000000 0.000000 0.577122 4.140631 72.193515 11.311822 15.036771 2.556856 -7.641446 -0.666294 -5.228137 -0.468183 -9.956634 -5.963543 7.202597 -11.575613 0.986469 1.041514 -8.110847 -4.736259 -0.000001 0.000001 -0.000001 2.686114 -4.470803 10.325790 -0.045355 -0.188976 19.198538 -0.053886 -0.137544 15.382542 0.000000 0.000000 0.000001 -1.600187 -5.334338 15.148422 0.090087 -0.605975 26.848434 -0.052980 -0.067484 12.825196 -0.000000 0.000000 -0.000000 -4.387617 -8.479939 12.961571 -0.024762 -0.313821 32.544926 0.107958 -0.641843 16.519320 0.000000 0.000000 -0.000000 -6.273535 -8.522925 24.848146 0.066313 -0.215097 34.010770 -0.038955 -0.087145 16.250179 -0.000000 0.000000 -0.000002 4.907748 11.187145 8.001430 17.963503 -7.921683 -0.800134 -22.864670 2.350372 -0.169660 -0.057990 -0.020441 0.032602 -0.000000 0.000000 0.000000 -31.016756 -6.905368 -2.482949 25.850511 0.883060 1.164113 0.749882 0.907953 7.108781 2.364049 -0.968601 -0.548122 -0.000000 -0.000000 -0.000000 
9.887183 93.340302 15.904306 -1.018169 6.406103 -4.974107 10.256391 -1.833152 2.028977 1.530882 -1.655979 1.713171 0.000000 0.000000 0.000000 -3.029680 -1.822409 0.405165 -2.777380 -2.362638 6.163046 -5.001021 1.132729 -5.650764 -0.000000 -0.000000 0.000000 1.734722 -2.975679 -1.007657 0.000000 0.000000 0.000000 -6.950077 -13.745414 -75.686897 9.739473 -12.702263 -4.881103 2.520961 -1.552539 8.466062 -4.410145 11.189403 11.752191 5.283378 9.887568 0.468360 2.445795 8.686163 3.361419 -0.000001 0.000000 0.000003 2.198445 -1.599440 -16.581445 -0.018977 0.149174 -19.725593 0.026863 0.094630 -17.741017 -0.000003 0.000001 -0.000001 -0.278366 -0.110842 -20.650196 0.043782 0.302367 -24.659676 0.030867 0.021890 -16.950221 -0.000000 0.000003 0.000003 -0.999208 1.595599 -20.811897 -0.026630 0.156632 -29.023646 0.071615 0.316711 -19.815238 0.000001 -0.000002 -0.000001 -3.117949 1.878808 -30.880381 0.021734 0.118997 -31.171744 0.015127 0.063552 -21.374046 0.000000 -0.000001 0.000001 2.341269 3.697852 6.000391 0.000000 0.000000 0.000000 0.577670 4.244791 72.228479 11.271319 14.839600 2.930570 -7.640641 -0.677189 -5.414288 -0.470734 -10.343831 -5.916569 7.104740 -11.559878 0.863598 1.008559 -7.813848 -4.557848 -0.000000 -0.000001 0.000002 2.674554 -4.239835 10.801760 -0.045332 -0.188997 19.226335 -0.053275 -0.137590 15.546252 0.000002 -0.000000 0.000004 -1.500432 -5.066628 15.545451 0.086124 -0.583994 26.650850 -0.051678 -0.069043 13.139768 -0.000000 -0.000001 -0.000002 -4.154880 -8.063590 13.611052 -0.025333 -0.302243 32.236758 0.106419 -0.616169 16.796219 0.000000 0.000000 0.000002 -6.074249 -8.029413 25.226238 0.065574 -0.214076 33.752910 -0.038354 -0.087494 16.640026 -0.000000 -0.000001 -0.000000 5.775843 11.038848 8.241177 17.031177 -7.705585 -0.749183 -22.842000 2.388049 -0.440243 -0.248026 -0.053483 0.079810 0.000000 -0.000001 0.000000 -30.725060 -7.192880 -1.866296 22.039168 1.849784 1.107025 0.213606 1.018554 6.479456 2.816726 -1.971480 -0.307398 0.000000 -0.000000 0.000000 
9.906054 93.534309 16.770473 -0.816624 6.571674 -5.227047 10.385962 -1.876855 2.039560 1.273627 -1.788264 1.884379 0.000000 0.000000 0.000000 -3.086573 -1.937610 0.641754 -2.875667 -2.328187 5.878670 -5.125607 1.143905 -5.846473 0.000000 0.000000 -0.000000 1.738331 -2.704593 -1.152258 0.000000 0.000000 0.000000 -6.991228 -14.055436 -75.556420 10.158545 -13.161981 -4.994911 2.946564 -2.051341 8.656869 -4.436998 11.271959 11.729138 5.209704 9.829540 0.527497 2.490606 8.678538 3.298332 -0.000001 0.000002 0.000002 2.147817 -1.841609 -16.983774 -0.019987 0.145581 -19.843349 0.026204 0.091709 -17.943805 0.000000 0.000002 -0.000002 -0.260712 -0.377512 -21.022083 0.042239 0.289957 -24.663605 0.030978 0.021775 -17.261819 -0.000002 -0.000001 0.000001 -0.958144 1.219238 -21.323495 -0.026848 0.150379 -28.996291 0.070788 0.303408 -20.117817 0.000003 0.000000 -0.000000 -3.103786 1.474198 -31.160621 0.020717 0.114287 -31.176340 0.014605 0.061360 -21.703811 -0.000003 0.000000 0.000001 2.373053 3.408513 5.817492 0.000000 0.000000 0.000000 0.773665 4.237544 72.357398 11.267693 14.704965 3.217603 -7.714440 -0.569651 -5.519642 -0.474372 -10.781635 -5.864794 6.994196 -11.541823 0.724866 0.970875 -7.478074 -4.356668 -0.000001 0.000000 0.000002 2.654090 -3.972522 11.335031 -0.045298 -0.189007 19.255072 -0.052598 -0.137635 15.728457 0.000001 -0.000000 0.000001 -1.393033 -4.761474 15.989246 0.081611 -0.559096 26.425469 -0.050147 -0.070787 13.492924 0.000001 -0.000001 -0.000001 -3.902715 -7.591993 14.337117 -0.025857 -0.289220 31.886752 0.103941 -0.588753 17.106784 0.000000 0.000000 -0.000004 -5.854048 -7.477577 25.644954 0.064657 -0.212900 33.459919 -0.037786 -0.087785 17.078591 0.000000 -0.000000 0.000001 6.491072 10.911862 8.494017 16.220186 -7.639899 -0.750197 -22.778263 2.472303 -0.626280 -0.531470 -0.085399 0.142721 0.000000 0.000000 -0.000000 -30.447320 -7.413866 -1.613263 18.536565 2.142576 1.330651 -0.261311 1.358348 6.025180 3.396833 -1.816950 -0.258559 -0.000001 0.000000 -0.000001 
